<svg width="18" height="14" viewBox="0 0 18 14" fill="none" xmlns="http://www.w3.org/2000/svg">
<path fill-rule="evenodd" clip-rule="evenodd" d="M14.7858 0.63913C14.9572 0.63913 15.1215 0.707585 15.2422 0.829286C15.3639 0.949993 15.4323 1.1143 15.4323 1.28571C15.4323 1.45712 15.3639 1.62144 15.2422 1.74214L3.67076 13.3136C3.55005 13.4353 3.38574 13.5037 3.21433 13.5037C3.04292 13.5037 2.87861 13.4353 2.7579 13.3136C2.6362 13.1929 2.56774 13.0286 2.56774 12.8571C2.56774 12.6857 2.6362 12.5214 2.7579 12.4007L3.7029 11.4621C2.03378 10.5473 0.739112 9.07518 0.0450425 7.30286C0.0146629 7.22952 -0.000641164 7.15081 4.25145e-05 7.07143V7.00714C-0.000641164 6.92776 0.0146629 6.84906 0.0450425 6.77571C1.28576 3.43929 4.8279 1.28571 9.00004 1.28571C10.4027 1.28192 11.793 1.5482 13.095 2.07L14.3293 0.829286C14.45 0.707585 14.6143 0.63913 14.7858 0.63913ZM9.00004 3.21429C6.8698 3.21429 5.1429 4.94119 5.1429 7.07143C5.14348 7.86706 5.393 8.64258 5.85647 9.28929L6.79504 8.35714C6.24605 7.35518 6.42401 6.11114 7.23188 5.30327C8.03976 4.49539 9.28379 4.31744 10.2858 4.86643L11.2308 3.92786C10.5805 3.46182 9.80007 3.21218 9.00004 3.21429ZM8.35719 9.55286L11.5072 6.40286C11.5578 6.62195 11.5794 6.84672 11.5715 7.07143C11.5715 8.49159 10.4202 9.64286 9.00004 9.64286C8.78281 9.64013 8.56681 9.60989 8.35719 9.55286ZM18 7.11V7.00714C18.0001 7.00374 18.0001 7.00034 18 6.99694C17.9994 6.92102 17.9841 6.84591 17.955 6.77571C17.3504 5.22795 16.2815 3.90529 14.895 2.98929L12.4779 5.40643C12.7292 5.92538 12.859 6.49481 12.8572 7.07143C12.8572 9.20167 11.1303 10.9286 9.00004 10.9286C8.42592 10.9404 7.85661 10.8217 7.33504 10.5814L5.5929 12.3236C6.71079 12.6811 7.87782 12.8611 9.05147 12.8571C13.2043 12.8571 16.7143 10.6843 17.955 7.34143C17.9854 7.26809 18.0007 7.18938 18 7.11Z" fill="#B0B0C3"/>
</svg>
